<svg width="324" height="92" viewBox="0 0 324 92" fill="none" xmlns="http://www.w3.org/2000/svg">
<mask id="mask0_212_270" style="mask-type:luminance" maskUnits="userSpaceOnUse" x="0" y="1" width="324" height="91">
<path d="M324 1.7926H0V91.6021H324V1.7926Z" fill="white"/>
</mask>
<g mask="url(#mask0_212_270)">
<path d="M308.247 74.4977C317.348 73.9507 319.807 60.2039 315.446 53.13C315.506 52.5831 315.536 52.0363 315.563 51.4894C326.978 49.4108 326.919 25.7458 314.716 26.1834C313.426 26.22 312.14 26.22 310.823 26.293C318.784 20.9693 317.408 1.75307 306.608 2.15417C211.839 5.58175 117.1 9.00932 22.3314 12.4369C10.6243 12.8745 10.1852 33.0751 19.902 37.232C16.3607 37.232 12.8485 37.232 9.30718 37.1956C-3.16086 37.0861 -3.04379 61.9178 9.30718 62.6836C22.624 63.5221 35.9115 64.2879 49.2282 64.9078C45.0138 65.163 40.7992 65.4184 36.5553 65.6736C24.2044 66.4391 24.1166 91.9271 36.5553 91.1615C127.138 85.6192 217.692 80.0402 308.276 74.4977H308.247Z" fill="#FC787D"/>
</g>
</svg>
